<?xml version="1.0" encoding="UTF-8" standalone="no"?>
<!DOCTYPE svg PUBLIC "-//W3C//DTD SVG 1.1//EN"
 "http://www.w3.org/Graphics/SVG/1.1/DTD/svg11.dtd">
<!-- Generated by graphviz version 2.44.0 (20200408.0750)
 -->
<!-- Title: G Pages: 1 -->
<svg width="956pt" height="365pt"
 viewBox="0.00 0.00 956.00 365.00" xmlns="http://www.w3.org/2000/svg" xmlns:xlink="http://www.w3.org/1999/xlink">
<g id="graph0" class="graph" transform="scale(1 1) rotate(0) translate(4 361)">
<title>G</title>
<polygon fill="white" stroke="transparent" points="-4,4 -4,-361 952,-361 952,4 -4,4"/>
<g id="clust1" class="cluster">
<title>cluster_us_west1</title>
<polygon fill="none" stroke="black" stroke-dasharray="5,2" points="620,-8 620,-83 940,-83 940,-8 620,-8"/>
<text text-anchor="middle" x="780" y="-67.8" font-family="Times,serif" font-size="14.00">us&#45;west1 (Oregon)</text>
</g>
<g id="clust2" class="cluster">
<title>cluster_us_central1</title>
<polygon fill="none" stroke="black" stroke-dasharray="5,2" points="162,-8 162,-313 588,-313 588,-8 162,-8"/>
<text text-anchor="middle" x="375" y="-297.8" font-family="Times,serif" font-size="14.00">us&#45;central1 (Iowa)</text>
</g>
<g id="clust3" class="cluster">
<title>cluster_asia_northeast1</title>
<polygon fill="none" stroke="black" stroke-dasharray="5,2" points="8,-155 8,-230 154,-230 154,-155 8,-155"/>
<text text-anchor="middle" x="81" y="-214.8" font-family="Times,serif" font-size="14.00">asia&#45;northeast1 (Tokyo)</text>
</g>
<g id="clust4" class="cluster">
<title>cluster_europe_north1</title>
<polygon fill="none" stroke="black" stroke-dasharray="5,2" points="644,-238 644,-313 882,-313 882,-238 644,-238"/>
<text text-anchor="middle" x="763" y="-297.8" font-family="Times,serif" font-size="14.00">europe&#45;north1 (Finland)</text>
</g>
<!-- us&#45;west1_svc&#45;d -->
<g id="node1" class="node">
<title>us&#45;west1_svc&#45;d</title>
<g id="a_node1"><a xlink:href="https://console.cloud.google.com/run/detail/us-west1/svc-d/revisions?project=233694408259" xlink:title="svc&#45;d&lt;br/&gt;&lt;font point&#45;size=&#39;9&#39;&gt;test&#45;acct&#45;4@ahmetb&#45;demo...&lt;/font&gt;">
<polygon fill="springgreen" stroke="springgreen" points="744,-52 628,-52 628,-16 744,-16 744,-52"/>
<text text-anchor="start" x="671" y="-35.3" font-family="Times,serif" font-size="14.00">svc&#45;d</text>
<text text-anchor="start" x="636" y="-25.3" font-family="Times,serif" font-size="9.00">test&#45;acct&#45;4@ahmetb&#45;demo...</text>
</a>
</g>
</g>
<!-- us&#45;west1_svc&#45;c -->
<g id="node2" class="node">
<title>us&#45;west1_svc&#45;c</title>
<g id="a_node2"><a xlink:href="https://console.cloud.google.com/run/detail/us-west1/svc-c/revisions?project=233694408259" xlink:title="svc&#45;c&lt;br/&gt;&lt;font point&#45;size=&#39;9&#39;&gt;test&#45;acct&#45;3@ahmetb&#45;demo...&lt;/font&gt;">
<polygon fill="#ffe7ba" stroke="#ffe7ba" points="932,-52 816,-52 816,-16 932,-16 932,-52"/>
<text text-anchor="start" x="859.5" y="-35.3" font-family="Times,serif" font-size="14.00">svc&#45;c</text>
<text text-anchor="start" x="824" y="-25.3" font-family="Times,serif" font-size="9.00">test&#45;acct&#45;3@ahmetb&#45;demo...</text>
</a>
</g>
</g>
<!-- us&#45;central1_svc&#45;e -->
<g id="node3" class="node">
<title>us&#45;central1_svc&#45;e</title>
<g id="a_node3"><a xlink:href="https://console.cloud.google.com/run/detail/us-central1/svc-e/revisions?project=233694408259" xlink:title="svc&#45;e&lt;br/&gt;&lt;font point&#45;size=&#39;9&#39;&gt;test&#45;acct&#45;5@ahmetb&#45;demo...&lt;/font&gt;">
<polygon fill="lightsalmon" stroke="lightsalmon" points="574,-199 458,-199 458,-163 574,-163 574,-199"/>
<text text-anchor="start" x="501.5" y="-182.3" font-family="Times,serif" font-size="14.00">svc&#45;e</text>
<text text-anchor="start" x="466" y="-172.3" font-family="Times,serif" font-size="9.00">test&#45;acct&#45;5@ahmetb&#45;demo...</text>
</a>
</g>
</g>
<!-- us&#45;central1_svc&#45;a -->
<g id="node7" class="node">
<title>us&#45;central1_svc&#45;a</title>
<g id="a_node7"><a xlink:href="https://console.cloud.google.com/run/detail/us-central1/svc-a/revisions?project=233694408259" xlink:title="svc&#45;a&lt;br/&gt;&lt;font point&#45;size=&#39;9&#39;&gt;test&#45;acct&#45;1@ahmetb&#45;demo...&lt;/font&gt;">
<polygon fill="chartreuse" stroke="chartreuse" points="562,-127 446,-127 446,-91 562,-91 562,-127"/>
<text text-anchor="start" x="489.5" y="-110.3" font-family="Times,serif" font-size="14.00">svc&#45;a</text>
<text text-anchor="start" x="454" y="-100.3" font-family="Times,serif" font-size="9.00">test&#45;acct&#45;1@ahmetb&#45;demo...</text>
</a>
</g>
</g>
<!-- us&#45;central1_svc&#45;e&#45;&gt;us&#45;central1_svc&#45;a -->
<g id="edge1" class="edge">
<title>us&#45;central1_svc&#45;e&#45;&gt;us&#45;central1_svc&#45;a</title>
<g id="a_edge1"><a xlink:href="https://console.cloud.google.com/run/detail/us-central1/svc-a/permissions?project=233694408259">
<path fill="none" stroke="black" d="M517.77,-162.95C518.85,-150.82 519.08,-143.24 517.89,-136.84"/>
<polygon fill="black" stroke="black" points="521.2,-135.69 514.79,-127.26 514.54,-137.85 521.2,-135.69"/>
</a>
</g>
</g>
<!-- us&#45;central1_svc&#45;d -->
<g id="node4" class="node">
<title>us&#45;central1_svc&#45;d</title>
<g id="a_node4"><a xlink:href="https://console.cloud.google.com/run/detail/us-central1/svc-d/revisions?project=233694408259" xlink:title="svc&#45;d&lt;br/&gt;&lt;font point&#45;size=&#39;9&#39;&gt;test&#45;acct&#45;4@ahmetb&#45;demo...&lt;/font&gt;">
<polygon fill="springgreen" stroke="springgreen" points="556,-52 440,-52 440,-16 556,-16 556,-52"/>
<text text-anchor="start" x="483" y="-35.3" font-family="Times,serif" font-size="14.00">svc&#45;d</text>
<text text-anchor="start" x="448" y="-25.3" font-family="Times,serif" font-size="9.00">test&#45;acct&#45;4@ahmetb&#45;demo...</text>
</a>
</g>
</g>
<!-- us&#45;central1_svc&#45;c -->
<g id="node5" class="node">
<title>us&#45;central1_svc&#45;c</title>
<g id="a_node5"><a xlink:href="https://console.cloud.google.com/run/detail/us-central1/svc-c/revisions?project=233694408259" xlink:title="svc&#45;c&lt;br/&gt;&lt;font point&#45;size=&#39;9&#39;&gt;test&#45;acct&#45;3@ahmetb&#45;demo...&lt;/font&gt;">
<polygon fill="#ffe7ba" stroke="#ffe7ba" points="368,-52 252,-52 252,-16 368,-16 368,-52"/>
<text text-anchor="start" x="295.5" y="-35.3" font-family="Times,serif" font-size="14.00">svc&#45;c</text>
<text text-anchor="start" x="260" y="-25.3" font-family="Times,serif" font-size="9.00">test&#45;acct&#45;3@ahmetb&#45;demo...</text>
</a>
</g>
</g>
<!-- us&#45;central1_svc&#45;b -->
<g id="node6" class="node">
<title>us&#45;central1_svc&#45;b</title>
<g id="a_node6"><a xlink:href="https://console.cloud.google.com/run/detail/us-central1/svc-b/revisions?project=233694408259" xlink:title="svc&#45;b&lt;br/&gt;&lt;font point&#45;size=&#39;9&#39;&gt;test&#45;acct&#45;2@ahmetb&#45;demo...&lt;/font&gt;">
<polygon fill="lavender" stroke="lavender" points="580,-282 464,-282 464,-246 580,-246 580,-282"/>
<text text-anchor="start" x="507" y="-265.3" font-family="Times,serif" font-size="14.00">svc&#45;b</text>
<text text-anchor="start" x="472" y="-255.3" font-family="Times,serif" font-size="9.00">test&#45;acct&#45;2@ahmetb&#45;demo...</text>
</a>
</g>
</g>
<!-- us&#45;central1_svc&#45;b&#45;&gt;us&#45;west1_svc&#45;c -->
<g id="edge3" class="edge">
<title>us&#45;central1_svc&#45;b&#45;&gt;us&#45;west1_svc&#45;c</title>
<g id="a_edge3"><a xlink:href="https://console.cloud.google.com/run/detail/us-west1/svc-c/permissions?project=233694408259">
<path fill="none" stroke="black" d="M559.21,-245.92C760.56,-147.99 783.25,-134.65 851.02,-59.69"/>
<polygon fill="black" stroke="black" points="853.63,-62.02 857.72,-52.24 848.43,-57.33 853.63,-62.02"/>
</a>
</g>
</g>
<!-- us&#45;central1_svc&#45;b&#45;&gt;us&#45;central1_svc&#45;e -->
<g id="edge2" class="edge">
<title>us&#45;central1_svc&#45;b&#45;&gt;us&#45;central1_svc&#45;e</title>
<g id="a_edge2"><a xlink:href="https://console.cloud.google.com/run/detail/us-central1/svc-e/permissions?project=233694408259">
<path fill="none" stroke="black" d="M526.91,-245.9C529.09,-235.17 528.3,-227.02 523.64,-208.86"/>
<polygon fill="black" stroke="black" points="526.99,-207.84 521.03,-199.08 520.22,-209.64 526.99,-207.84"/>
</a>
</g>
</g>
<!-- us&#45;central1_svc&#45;b&#45;&gt;us&#45;central1_svc&#45;c -->
<g id="edge4" class="edge">
<title>us&#45;central1_svc&#45;b&#45;&gt;us&#45;central1_svc&#45;c</title>
<g id="a_edge4"><a xlink:href="https://console.cloud.google.com/run/detail/us-central1/svc-c/permissions?project=233694408259">
<path fill="none" stroke="black" d="M501.59,-245.91C377.3,-135.69 360.59,-119.51 325.79,-61.01"/>
<polygon fill="black" stroke="black" points="328.6,-58.89 320.5,-52.06 322.57,-62.45 328.6,-58.89"/>
</a>
</g>
</g>
<!-- us&#45;central1_svc&#45;a&#45;&gt;us&#45;west1_svc&#45;d -->
<g id="edge6" class="edge">
<title>us&#45;central1_svc&#45;a&#45;&gt;us&#45;west1_svc&#45;d</title>
<g id="a_edge6"><a xlink:href="https://console.cloud.google.com/run/detail/us-west1/svc-d/permissions?project=233694408259">
<path fill="none" stroke="black" d="M538.32,-90.92C577.25,-70.47 599.9,-58.97 617.99,-51.58"/>
<polygon fill="black" stroke="black" points="619.57,-54.72 627.65,-47.87 617.06,-48.19 619.57,-54.72"/>
</a>
</g>
</g>
<!-- us&#45;central1_svc&#45;a&#45;&gt;us&#45;west1_svc&#45;c -->
<g id="edge7" class="edge">
<title>us&#45;central1_svc&#45;a&#45;&gt;us&#45;west1_svc&#45;c</title>
<g id="a_edge7"><a xlink:href="https://console.cloud.google.com/run/detail/us-west1/svc-c/permissions?project=233694408259">
<path fill="none" stroke="black" d="M562.2,-92.62C707.15,-51.94 749.43,-41.3 805.64,-37.07"/>
<polygon fill="black" stroke="black" points="806.2,-40.54 815.94,-36.38 805.73,-33.56 806.2,-40.54"/>
</a>
</g>
</g>
<!-- us&#45;central1_svc&#45;a&#45;&gt;us&#45;central1_svc&#45;d -->
<g id="edge5" class="edge">
<title>us&#45;central1_svc&#45;a&#45;&gt;us&#45;central1_svc&#45;d</title>
<g id="a_edge5"><a xlink:href="https://console.cloud.google.com/run/detail/us-central1/svc-d/permissions?project=233694408259">
<path fill="none" stroke="black" d="M504.22,-90.83C504.35,-77.75 504.32,-69.28 503.91,-62.7"/>
<polygon fill="black" stroke="black" points="507.34,-61.85 502.72,-52.31 500.38,-62.64 507.34,-61.85"/>
</a>
</g>
</g>
<!-- us&#45;central1_svc&#45;a&#45;&gt;us&#45;central1_svc&#45;c -->
<g id="edge8" class="edge">
<title>us&#45;central1_svc&#45;a&#45;&gt;us&#45;central1_svc&#45;c</title>
<g id="a_edge8"><a xlink:href="https://console.cloud.google.com/run/detail/us-central1/svc-c/permissions?project=233694408259">
<path fill="none" stroke="black" d="M474.36,-90.92C425.11,-61.01 400.94,-47.4 378.02,-40.87"/>
<polygon fill="black" stroke="black" points="378.74,-37.45 368.19,-38.48 377.08,-44.25 378.74,-37.45"/>
</a>
</g>
</g>
<!-- us&#45;central1_pdf -->
<g id="node8" class="node">
<title>us&#45;central1_pdf</title>
<g id="a_node8"><a xlink:href="https://console.cloud.google.com/run/detail/us-central1/pdf/revisions?project=233694408259" xlink:title="pdf&lt;br/&gt;&lt;font point&#45;size=&#39;9&#39;&gt;233694408259&#45;compute@developer.gserviceaccount.com&lt;/font&gt;">
<polygon fill="chartreuse" stroke="chartreuse" points="392,-282 170,-282 170,-246 392,-246 392,-282"/>
<text text-anchor="start" x="271.5" y="-265.3" font-family="Times,serif" font-size="14.00">pdf</text>
<text text-anchor="start" x="178" y="-255.3" font-family="Times,serif" font-size="9.00">233694408259&#45;compute@developer.gserviceaccount.com</text>
</a>
</g>
</g>
<!-- asia&#45;northeast1_svc&#45;e -->
<g id="node9" class="node">
<title>asia&#45;northeast1_svc&#45;e</title>
<g id="a_node9"><a xlink:href="https://console.cloud.google.com/run/detail/asia-northeast1/svc-e/revisions?project=233694408259" xlink:title="svc&#45;e&lt;br/&gt;&lt;font point&#45;size=&#39;9&#39;&gt;test&#45;acct&#45;5@ahmetb&#45;demo...&lt;/font&gt;">
<polygon fill="lightsalmon" stroke="lightsalmon" points="146,-199 30,-199 30,-163 146,-163 146,-199"/>
<text text-anchor="start" x="73.5" y="-182.3" font-family="Times,serif" font-size="14.00">svc&#45;e</text>
<text text-anchor="start" x="38" y="-172.3" font-family="Times,serif" font-size="9.00">test&#45;acct&#45;5@ahmetb&#45;demo...</text>
</a>
</g>
</g>
<!-- asia&#45;northeast1_svc&#45;e&#45;&gt;us&#45;central1_svc&#45;a -->
<g id="edge9" class="edge">
<title>asia&#45;northeast1_svc&#45;e&#45;&gt;us&#45;central1_svc&#45;a</title>
<g id="a_edge9"><a xlink:href="https://console.cloud.google.com/run/detail/us-central1/svc-a/permissions?project=233694408259">
<path fill="none" stroke="black" d="M132.17,-163C209.71,-132.36 244.58,-127.44 435.74,-113.81"/>
<polygon fill="black" stroke="black" points="436.12,-117.29 445.85,-113.09 435.63,-110.31 436.12,-117.29"/>
</a>
</g>
</g>
<!-- europe&#45;north1_hello -->
<g id="node10" class="node">
<title>europe&#45;north1_hello</title>
<g id="a_node10"><a xlink:href="https://console.cloud.google.com/run/detail/europe-north1/hello/revisions?project=233694408259" xlink:title="hello&lt;br/&gt;&lt;font point&#45;size=&#39;9&#39;&gt;233694408259&#45;compute@developer.gserviceaccount.com&lt;/font&gt;">
<polygon fill="#76eec6" stroke="#76eec6" points="874,-282 652,-282 652,-246 874,-246 874,-282"/>
<text text-anchor="start" x="749" y="-265.3" font-family="Times,serif" font-size="14.00">hello</text>
<text text-anchor="start" x="660" y="-255.3" font-family="Times,serif" font-size="9.00">233694408259&#45;compute@developer.gserviceaccount.com</text>
</a>
</g>
</g>
<!-- allUsers -->
<g id="node11" class="node">
<title>allUsers</title>
<ellipse fill="none" stroke="black" stroke-dasharray="5,2" cx="522" cy="-339" rx="39.79" ry="18"/>
<text text-anchor="middle" x="522" y="-335.3" font-family="Times,serif" font-size="14.00">allUsers</text>
</g>
<!-- allUsers&#45;&gt;us&#45;central1_svc&#45;b -->
<g id="edge10" class="edge">
<title>allUsers&#45;&gt;us&#45;central1_svc&#45;b</title>
<g id="a_edge10"><a xlink:href="https://console.cloud.google.com/run/detail/us-central1/svc-b/permissions?project=233694408259">
<path fill="none" stroke="black" d="M525.61,-320.79C526.43,-313.66 526.2,-306.31 524.9,-292.31"/>
<polygon fill="black" stroke="black" points="528.36,-291.69 523.9,-282.08 521.39,-292.38 528.36,-291.69"/>
</a>
</g>
</g>
<!-- allUsers&#45;&gt;us&#45;central1_pdf -->
<g id="edge12" class="edge">
<title>allUsers&#45;&gt;us&#45;central1_pdf</title>
<g id="a_edge12"><a xlink:href="https://console.cloud.google.com/run/detail/us-central1/pdf/permissions?project=233694408259">
<path fill="none" stroke="black" d="M482.44,-340.54C388.6,-343.72 370.18,-338.59 310.22,-288.75"/>
<polygon fill="black" stroke="black" points="312.2,-285.84 302.29,-282.1 307.71,-291.21 312.2,-285.84"/>
</a>
</g>
</g>
<!-- allUsers&#45;&gt;europe&#45;north1_hello -->
<g id="edge11" class="edge">
<title>allUsers&#45;&gt;europe&#45;north1_hello</title>
<g id="a_edge11"><a xlink:href="https://console.cloud.google.com/run/detail/europe-north1/hello/permissions?project=233694408259">
<path fill="none" stroke="black" d="M561.74,-337.05C665.03,-331.7 685.66,-326.94 733.41,-288.61"/>
<polygon fill="black" stroke="black" points="735.78,-291.19 741.32,-282.16 731.36,-285.76 735.78,-291.19"/>
</a>
</g>
</g>
</g>
</svg>
