<?xml version="1.0" encoding="UTF-8" standalone="no"?>
<!DOCTYPE svg PUBLIC "-//W3C//DTD SVG 1.1//EN"
 "http://www.w3.org/Graphics/SVG/1.1/DTD/svg11.dtd">
<!-- Generated by graphviz version 2.42.3 (20191010.1750)
 -->
<!-- Title: G Pages: 1 -->
<svg width="918pt" height="314pt"
 viewBox="0.00 0.00 918.00 314.00" xmlns="http://www.w3.org/2000/svg" xmlns:xlink="http://www.w3.org/1999/xlink">
<g id="graph0" class="graph" transform="scale(1 1) rotate(0) translate(4 310)">
<title>G</title>
<polygon fill="white" stroke="transparent" points="-4,4 -4,-310 914,-310 914,4 -4,4"/>
<g id="clust2" class="cluster">
<title>cluster_us_central1</title>
<polygon fill="none" stroke="black" stroke-dasharray="5,2" points="8,-8 8,-298 451,-298 451,-8 8,-8"/>
<text text-anchor="middle" x="229.5" y="-282.8" font-family="Times,serif" font-size="14.00">us&#45;central1 (Iowa)</text>
</g>
<g id="clust1" class="cluster">
<title>cluster_us_west1</title>
<polygon fill="none" stroke="black" stroke-dasharray="5,2" points="459,-8 459,-298 902,-298 902,-8 459,-8"/>
<text text-anchor="middle" x="680.5" y="-282.8" font-family="Times,serif" font-size="14.00">us&#45;west1 (Oregon)</text>
</g>
<!-- us&#45;west1_svc&#45;e -->
<g id="node1" class="node">
<title>us&#45;west1_svc&#45;e</title>
<g id="a_node1"><a xlink:href="https://console.cloud.google.com/run/detail/us-west1/svc-e/revisions?project=233694408259" xlink:title="svc&#45;e&lt;br/&gt;&lt;font point&#45;size=&#39;9&#39;&gt;test&#45;acct&#45;5@ahmetb&#45;demo.iam.gserviceaccount.com&lt;/font&gt;">
<polygon fill="lightsalmon" stroke="lightsalmon" points="671.46,-196 466.54,-196 466.54,-160 671.46,-160 671.46,-196"/>
<text text-anchor="start" x="554.23" y="-179.3" font-family="Times,serif" font-size="14.00">svc&#45;e</text>
<text text-anchor="start" x="474.52" y="-169.3" font-family="Times,serif" font-size="9.00">test&#45;acct&#45;5@ahmetb&#45;demo.iam.gserviceaccount.com</text>
</a>
</g>
</g>
<!-- us&#45;west1_svc&#45;a -->
<g id="node5" class="node">
<title>us&#45;west1_svc&#45;a</title>
<g id="a_node5"><a xlink:href="https://console.cloud.google.com/run/detail/us-west1/svc-a/revisions?project=233694408259" xlink:title="svc&#45;a&lt;br/&gt;&lt;font point&#45;size=&#39;9&#39;&gt;test&#45;acct&#45;1@ahmetb&#45;demo.iam.gserviceaccount.com&lt;/font&gt;">
<polygon fill="chartreuse" stroke="chartreuse" points="671.46,-124 466.54,-124 466.54,-88 671.46,-88 671.46,-124"/>
<text text-anchor="start" x="554.23" y="-107.3" font-family="Times,serif" font-size="14.00">svc&#45;a</text>
<text text-anchor="start" x="474.52" y="-97.3" font-family="Times,serif" font-size="9.00">test&#45;acct&#45;1@ahmetb&#45;demo.iam.gserviceaccount.com</text>
</a>
</g>
</g>
<!-- us&#45;west1_svc&#45;e&#45;&gt;us&#45;west1_svc&#45;a -->
<g id="edge1" class="edge">
<title>us&#45;west1_svc&#45;e&#45;&gt;us&#45;west1_svc&#45;a</title>
<g id="a_edge1"><a xlink:href="https://console.cloud.google.com/run/detail/us-west1/svc-a/permissions?project=233694408259">
<path fill="none" stroke="black" d="M569,-159.7C569,-151.98 569,-142.71 569,-134.11"/>
<polygon fill="black" stroke="black" points="572.5,-134.1 569,-124.1 565.5,-134.1 572.5,-134.1"/>
</a>
</g>
</g>
<!-- us&#45;central1_svc&#45;a -->
<g id="node8" class="node">
<title>us&#45;central1_svc&#45;a</title>
<g id="a_node8"><a xlink:href="https://console.cloud.google.com/run/detail/us-central1/svc-a/revisions?project=233694408259" xlink:title="svc&#45;a&lt;br/&gt;&lt;font point&#45;size=&#39;9&#39;&gt;test&#45;acct&#45;1@ahmetb&#45;demo.iam.gserviceaccount.com&lt;/font&gt;">
<polygon fill="chartreuse" stroke="chartreuse" points="443.46,-124 238.54,-124 238.54,-88 443.46,-88 443.46,-124"/>
<text text-anchor="start" x="326.23" y="-107.3" font-family="Times,serif" font-size="14.00">svc&#45;a</text>
<text text-anchor="start" x="246.52" y="-97.3" font-family="Times,serif" font-size="9.00">test&#45;acct&#45;1@ahmetb&#45;demo.iam.gserviceaccount.com</text>
</a>
</g>
</g>
<!-- us&#45;west1_svc&#45;e&#45;&gt;us&#45;central1_svc&#45;a -->
<g id="edge2" class="edge">
<title>us&#45;west1_svc&#45;e&#45;&gt;us&#45;central1_svc&#45;a</title>
<g id="a_edge2"><a xlink:href="https://console.cloud.google.com/run/detail/us-central1/svc-a/permissions?project=233694408259">
<path fill="none" stroke="black" d="M513.52,-159.97C481.24,-150.06 440.39,-137.51 406.54,-127.12"/>
<polygon fill="black" stroke="black" points="407.32,-123.7 396.73,-124.11 405.26,-130.39 407.32,-123.7"/>
</a>
</g>
</g>
<!-- us&#45;west1_svc&#45;d -->
<g id="node2" class="node">
<title>us&#45;west1_svc&#45;d</title>
<g id="a_node2"><a xlink:href="https://console.cloud.google.com/run/detail/us-west1/svc-d/revisions?project=233694408259" xlink:title="svc&#45;d&lt;br/&gt;&lt;font point&#45;size=&#39;9&#39;&gt;test&#45;acct&#45;4@ahmetb&#45;demo.iam.gserviceaccount.com&lt;/font&gt;">
<polygon fill="springgreen" stroke="springgreen" points="671.46,-52 466.54,-52 466.54,-16 671.46,-16 671.46,-52"/>
<text text-anchor="start" x="553.84" y="-35.3" font-family="Times,serif" font-size="14.00">svc&#45;d</text>
<text text-anchor="start" x="474.52" y="-25.3" font-family="Times,serif" font-size="9.00">test&#45;acct&#45;4@ahmetb&#45;demo.iam.gserviceaccount.com</text>
</a>
</g>
</g>
<!-- us&#45;west1_svc&#45;c -->
<g id="node3" class="node">
<title>us&#45;west1_svc&#45;c</title>
<g id="a_node3"><a xlink:href="https://console.cloud.google.com/run/detail/us-west1/svc-c/revisions?project=233694408259" xlink:title="svc&#45;c&lt;br/&gt;&lt;font point&#45;size=&#39;9&#39;&gt;test&#45;acct&#45;3@ahmetb&#45;demo.iam.gserviceaccount.com&lt;/font&gt;">
<polygon fill="#ffe7ba" stroke="#ffe7ba" points="894.46,-52 689.54,-52 689.54,-16 894.46,-16 894.46,-52"/>
<text text-anchor="start" x="777.23" y="-35.3" font-family="Times,serif" font-size="14.00">svc&#45;c</text>
<text text-anchor="start" x="697.52" y="-25.3" font-family="Times,serif" font-size="9.00">test&#45;acct&#45;3@ahmetb&#45;demo.iam.gserviceaccount.com</text>
</a>
</g>
</g>
<!-- us&#45;west1_svc&#45;b -->
<g id="node4" class="node">
<title>us&#45;west1_svc&#45;b</title>
<g id="a_node4"><a xlink:href="https://console.cloud.google.com/run/detail/us-west1/svc-b/revisions?project=233694408259" xlink:title="svc&#45;b&lt;br/&gt;&lt;font point&#45;size=&#39;9&#39;&gt;test&#45;acct&#45;2@ahmetb&#45;demo.iam.gserviceaccount.com&lt;/font&gt;">
<polygon fill="lavender" stroke="lavender" points="671.46,-268 466.54,-268 466.54,-232 671.46,-232 671.46,-268"/>
<text text-anchor="start" x="553.84" y="-251.3" font-family="Times,serif" font-size="14.00">svc&#45;b</text>
<text text-anchor="start" x="474.52" y="-241.3" font-family="Times,serif" font-size="9.00">test&#45;acct&#45;2@ahmetb&#45;demo.iam.gserviceaccount.com</text>
</a>
</g>
</g>
<!-- us&#45;west1_svc&#45;b&#45;&gt;us&#45;west1_svc&#45;e -->
<g id="edge5" class="edge">
<title>us&#45;west1_svc&#45;b&#45;&gt;us&#45;west1_svc&#45;e</title>
<g id="a_edge5"><a xlink:href="https://console.cloud.google.com/run/detail/us-west1/svc-e/permissions?project=233694408259">
<path fill="none" stroke="black" d="M569,-231.7C569,-223.98 569,-214.71 569,-206.11"/>
<polygon fill="black" stroke="black" points="572.5,-206.1 569,-196.1 565.5,-206.1 572.5,-206.1"/>
</a>
</g>
</g>
<!-- us&#45;west1_svc&#45;b&#45;&gt;us&#45;west1_svc&#45;c -->
<g id="edge3" class="edge">
<title>us&#45;west1_svc&#45;b&#45;&gt;us&#45;west1_svc&#45;c</title>
<g id="a_edge3"><a xlink:href="https://console.cloud.google.com/run/detail/us-west1/svc-c/permissions?project=233694408259">
<path fill="none" stroke="black" d="M618.38,-231.91C638.88,-223.24 662.02,-211.28 680,-196 725.54,-157.31 761.28,-96 779.25,-61.27"/>
<polygon fill="black" stroke="black" points="782.44,-62.72 783.84,-52.22 776.2,-59.55 782.44,-62.72"/>
</a>
</g>
</g>
<!-- us&#45;central1_svc&#45;c -->
<g id="node6" class="node">
<title>us&#45;central1_svc&#45;c</title>
<g id="a_node6"><a xlink:href="https://console.cloud.google.com/run/detail/us-central1/svc-c/revisions?project=233694408259" xlink:title="svc&#45;c&lt;br/&gt;&lt;font point&#45;size=&#39;9&#39;&gt;test&#45;acct&#45;3@ahmetb&#45;demo.iam.gserviceaccount.com&lt;/font&gt;">
<polygon fill="#ffe7ba" stroke="#ffe7ba" points="220.46,-52 15.54,-52 15.54,-16 220.46,-16 220.46,-52"/>
<text text-anchor="start" x="103.23" y="-35.3" font-family="Times,serif" font-size="14.00">svc&#45;c</text>
<text text-anchor="start" x="23.52" y="-25.3" font-family="Times,serif" font-size="9.00">test&#45;acct&#45;3@ahmetb&#45;demo.iam.gserviceaccount.com</text>
</a>
</g>
</g>
<!-- us&#45;west1_svc&#45;b&#45;&gt;us&#45;central1_svc&#45;c -->
<g id="edge6" class="edge">
<title>us&#45;west1_svc&#45;b&#45;&gt;us&#45;central1_svc&#45;c</title>
<g id="a_edge6"><a xlink:href="https://console.cloud.google.com/run/detail/us-central1/svc-c/permissions?project=233694408259">
<path fill="none" stroke="black" d="M466.48,-233.46C367.63,-218.4 232.56,-197.6 230,-196 178.55,-163.81 144.45,-98.4 128.48,-61.63"/>
<polygon fill="black" stroke="black" points="131.56,-59.93 124.46,-52.07 125.11,-62.64 131.56,-59.93"/>
</a>
</g>
</g>
<!-- us&#45;central1_svc&#45;e -->
<g id="node9" class="node">
<title>us&#45;central1_svc&#45;e</title>
<g id="a_node9"><a xlink:href="https://console.cloud.google.com/run/detail/us-central1/svc-e/revisions?project=233694408259" xlink:title="svc&#45;e&lt;br/&gt;&lt;font point&#45;size=&#39;9&#39;&gt;test&#45;acct&#45;5@ahmetb&#45;demo.iam.gserviceaccount.com&lt;/font&gt;">
<polygon fill="lightsalmon" stroke="lightsalmon" points="443.46,-196 238.54,-196 238.54,-160 443.46,-160 443.46,-196"/>
<text text-anchor="start" x="326.23" y="-179.3" font-family="Times,serif" font-size="14.00">svc&#45;e</text>
<text text-anchor="start" x="246.52" y="-169.3" font-family="Times,serif" font-size="9.00">test&#45;acct&#45;5@ahmetb&#45;demo.iam.gserviceaccount.com</text>
</a>
</g>
</g>
<!-- us&#45;west1_svc&#45;b&#45;&gt;us&#45;central1_svc&#45;e -->
<g id="edge4" class="edge">
<title>us&#45;west1_svc&#45;b&#45;&gt;us&#45;central1_svc&#45;e</title>
<g id="a_edge4"><a xlink:href="https://console.cloud.google.com/run/detail/us-central1/svc-e/permissions?project=233694408259">
<path fill="none" stroke="black" d="M513.52,-231.97C481.24,-222.06 440.39,-209.51 406.54,-199.12"/>
<polygon fill="black" stroke="black" points="407.32,-195.7 396.73,-196.11 405.26,-202.39 407.32,-195.7"/>
</a>
</g>
</g>
<!-- us&#45;west1_svc&#45;a&#45;&gt;us&#45;west1_svc&#45;d -->
<g id="edge8" class="edge">
<title>us&#45;west1_svc&#45;a&#45;&gt;us&#45;west1_svc&#45;d</title>
<g id="a_edge8"><a xlink:href="https://console.cloud.google.com/run/detail/us-west1/svc-d/permissions?project=233694408259">
<path fill="none" stroke="black" d="M569,-87.7C569,-79.98 569,-70.71 569,-62.11"/>
<polygon fill="black" stroke="black" points="572.5,-62.1 569,-52.1 565.5,-62.1 572.5,-62.1"/>
</a>
</g>
</g>
<!-- us&#45;west1_svc&#45;a&#45;&gt;us&#45;west1_svc&#45;c -->
<g id="edge9" class="edge">
<title>us&#45;west1_svc&#45;a&#45;&gt;us&#45;west1_svc&#45;c</title>
<g id="a_edge9"><a xlink:href="https://console.cloud.google.com/run/detail/us-west1/svc-c/permissions?project=233694408259">
<path fill="none" stroke="black" d="M623.27,-87.97C654.83,-78.06 694.79,-65.51 727.9,-55.12"/>
<polygon fill="black" stroke="black" points="729,-58.45 737.49,-52.11 726.9,-51.77 729,-58.45"/>
</a>
</g>
</g>
<!-- us&#45;west1_svc&#45;a&#45;&gt;us&#45;central1_svc&#45;c -->
<g id="edge10" class="edge">
<title>us&#45;west1_svc&#45;a&#45;&gt;us&#45;central1_svc&#45;c</title>
<g id="a_edge10"><a xlink:href="https://console.cloud.google.com/run/detail/us-central1/svc-c/permissions?project=233694408259">
<path fill="none" stroke="black" d="M466.38,-89.07C396.12,-78.17 302.96,-63.71 230.65,-52.48"/>
<polygon fill="black" stroke="black" points="231.01,-49 220.59,-50.92 229.93,-55.92 231.01,-49"/>
</a>
</g>
</g>
<!-- us&#45;central1_svc&#45;d -->
<g id="node10" class="node">
<title>us&#45;central1_svc&#45;d</title>
<g id="a_node10"><a xlink:href="https://console.cloud.google.com/run/detail/us-central1/svc-d/revisions?project=233694408259" xlink:title="svc&#45;d&lt;br/&gt;&lt;font point&#45;size=&#39;9&#39;&gt;test&#45;acct&#45;4@ahmetb&#45;demo.iam.gserviceaccount.com&lt;/font&gt;">
<polygon fill="springgreen" stroke="springgreen" points="443.46,-52 238.54,-52 238.54,-16 443.46,-16 443.46,-52"/>
<text text-anchor="start" x="325.84" y="-35.3" font-family="Times,serif" font-size="14.00">svc&#45;d</text>
<text text-anchor="start" x="246.52" y="-25.3" font-family="Times,serif" font-size="9.00">test&#45;acct&#45;4@ahmetb&#45;demo.iam.gserviceaccount.com</text>
</a>
</g>
</g>
<!-- us&#45;west1_svc&#45;a&#45;&gt;us&#45;central1_svc&#45;d -->
<g id="edge7" class="edge">
<title>us&#45;west1_svc&#45;a&#45;&gt;us&#45;central1_svc&#45;d</title>
<g id="a_edge7"><a xlink:href="https://console.cloud.google.com/run/detail/us-central1/svc-d/permissions?project=233694408259">
<path fill="none" stroke="black" d="M513.52,-87.97C481.24,-78.06 440.39,-65.51 406.54,-55.12"/>
<polygon fill="black" stroke="black" points="407.32,-51.7 396.73,-52.11 405.26,-58.39 407.32,-51.7"/>
</a>
</g>
</g>
<!-- us&#45;central1_svc&#45;b -->
<g id="node7" class="node">
<title>us&#45;central1_svc&#45;b</title>
<g id="a_node7"><a xlink:href="https://console.cloud.google.com/run/detail/us-central1/svc-b/revisions?project=233694408259" xlink:title="svc&#45;b&lt;br/&gt;&lt;font point&#45;size=&#39;9&#39;&gt;test&#45;acct&#45;2@ahmetb&#45;demo.iam.gserviceaccount.com&lt;/font&gt;">
<polygon fill="lavender" stroke="lavender" points="443.46,-268 238.54,-268 238.54,-232 443.46,-232 443.46,-268"/>
<text text-anchor="start" x="325.84" y="-251.3" font-family="Times,serif" font-size="14.00">svc&#45;b</text>
<text text-anchor="start" x="246.52" y="-241.3" font-family="Times,serif" font-size="9.00">test&#45;acct&#45;2@ahmetb&#45;demo.iam.gserviceaccount.com</text>
</a>
</g>
</g>
<!-- us&#45;central1_svc&#45;b&#45;&gt;us&#45;west1_svc&#45;e -->
<g id="edge13" class="edge">
<title>us&#45;central1_svc&#45;b&#45;&gt;us&#45;west1_svc&#45;e</title>
<g id="a_edge13"><a xlink:href="https://console.cloud.google.com/run/detail/us-west1/svc-e/permissions?project=233694408259">
<path fill="none" stroke="black" d="M396.48,-231.97C428.76,-222.06 469.61,-209.51 503.46,-199.12"/>
<polygon fill="black" stroke="black" points="504.74,-202.39 513.27,-196.11 502.68,-195.7 504.74,-202.39"/>
</a>
</g>
</g>
<!-- us&#45;central1_svc&#45;b&#45;&gt;us&#45;west1_svc&#45;c -->
<g id="edge11" class="edge">
<title>us&#45;central1_svc&#45;b&#45;&gt;us&#45;west1_svc&#45;c</title>
<g id="a_edge11"><a xlink:href="https://console.cloud.google.com/run/detail/us-west1/svc-c/permissions?project=233694408259">
<path fill="none" stroke="black" d="M443.52,-233.46C542.37,-218.4 677.44,-197.6 680,-196 731.45,-163.81 765.55,-98.4 781.52,-61.63"/>
<polygon fill="black" stroke="black" points="784.89,-62.64 785.54,-52.07 778.44,-59.93 784.89,-62.64"/>
</a>
</g>
</g>
<!-- us&#45;central1_svc&#45;b&#45;&gt;us&#45;central1_svc&#45;c -->
<g id="edge14" class="edge">
<title>us&#45;central1_svc&#45;b&#45;&gt;us&#45;central1_svc&#45;c</title>
<g id="a_edge14"><a xlink:href="https://console.cloud.google.com/run/detail/us-central1/svc-c/permissions?project=233694408259">
<path fill="none" stroke="black" d="M291.62,-231.91C271.12,-223.24 247.98,-211.28 230,-196 184.46,-157.31 148.72,-96 130.75,-61.27"/>
<polygon fill="black" stroke="black" points="133.8,-59.55 126.16,-52.22 127.56,-62.72 133.8,-59.55"/>
</a>
</g>
</g>
<!-- us&#45;central1_svc&#45;b&#45;&gt;us&#45;central1_svc&#45;e -->
<g id="edge12" class="edge">
<title>us&#45;central1_svc&#45;b&#45;&gt;us&#45;central1_svc&#45;e</title>
<g id="a_edge12"><a xlink:href="https://console.cloud.google.com/run/detail/us-central1/svc-e/permissions?project=233694408259">
<path fill="none" stroke="black" d="M341,-231.7C341,-223.98 341,-214.71 341,-206.11"/>
<polygon fill="black" stroke="black" points="344.5,-206.1 341,-196.1 337.5,-206.1 344.5,-206.1"/>
</a>
</g>
</g>
<!-- us&#45;central1_svc&#45;a&#45;&gt;us&#45;west1_svc&#45;d -->
<g id="edge16" class="edge">
<title>us&#45;central1_svc&#45;a&#45;&gt;us&#45;west1_svc&#45;d</title>
<g id="a_edge16"><a xlink:href="https://console.cloud.google.com/run/detail/us-west1/svc-d/permissions?project=233694408259">
<path fill="none" stroke="black" d="M396.48,-87.97C428.76,-78.06 469.61,-65.51 503.46,-55.12"/>
<polygon fill="black" stroke="black" points="504.74,-58.39 513.27,-52.11 502.68,-51.7 504.74,-58.39"/>
</a>
</g>
</g>
<!-- us&#45;central1_svc&#45;a&#45;&gt;us&#45;west1_svc&#45;c -->
<g id="edge17" class="edge">
<title>us&#45;central1_svc&#45;a&#45;&gt;us&#45;west1_svc&#45;c</title>
<g id="a_edge17"><a xlink:href="https://console.cloud.google.com/run/detail/us-west1/svc-c/permissions?project=233694408259">
<path fill="none" stroke="black" d="M443.62,-89.07C513.88,-78.17 607.04,-63.71 679.35,-52.48"/>
<polygon fill="black" stroke="black" points="680.07,-55.92 689.41,-50.92 678.99,-49 680.07,-55.92"/>
</a>
</g>
</g>
<!-- us&#45;central1_svc&#45;a&#45;&gt;us&#45;central1_svc&#45;c -->
<g id="edge18" class="edge">
<title>us&#45;central1_svc&#45;a&#45;&gt;us&#45;central1_svc&#45;c</title>
<g id="a_edge18"><a xlink:href="https://console.cloud.google.com/run/detail/us-central1/svc-c/permissions?project=233694408259">
<path fill="none" stroke="black" d="M286.73,-87.97C255.17,-78.06 215.21,-65.51 182.1,-55.12"/>
<polygon fill="black" stroke="black" points="183.1,-51.77 172.51,-52.11 181,-58.45 183.1,-51.77"/>
</a>
</g>
</g>
<!-- us&#45;central1_svc&#45;a&#45;&gt;us&#45;central1_svc&#45;d -->
<g id="edge15" class="edge">
<title>us&#45;central1_svc&#45;a&#45;&gt;us&#45;central1_svc&#45;d</title>
<g id="a_edge15"><a xlink:href="https://console.cloud.google.com/run/detail/us-central1/svc-d/permissions?project=233694408259">
<path fill="none" stroke="black" d="M341,-87.7C341,-79.98 341,-70.71 341,-62.11"/>
<polygon fill="black" stroke="black" points="344.5,-62.1 341,-52.1 337.5,-62.1 344.5,-62.1"/>
</a>
</g>
</g>
<!-- us&#45;central1_svc&#45;e&#45;&gt;us&#45;west1_svc&#45;a -->
<g id="edge19" class="edge">
<title>us&#45;central1_svc&#45;e&#45;&gt;us&#45;west1_svc&#45;a</title>
<g id="a_edge19"><a xlink:href="https://console.cloud.google.com/run/detail/us-west1/svc-a/permissions?project=233694408259">
<path fill="none" stroke="black" d="M396.48,-159.97C428.76,-150.06 469.61,-137.51 503.46,-127.12"/>
<polygon fill="black" stroke="black" points="504.74,-130.39 513.27,-124.11 502.68,-123.7 504.74,-130.39"/>
</a>
</g>
</g>
<!-- us&#45;central1_svc&#45;e&#45;&gt;us&#45;central1_svc&#45;a -->
<g id="edge20" class="edge">
<title>us&#45;central1_svc&#45;e&#45;&gt;us&#45;central1_svc&#45;a</title>
<g id="a_edge20"><a xlink:href="https://console.cloud.google.com/run/detail/us-central1/svc-a/permissions?project=233694408259">
<path fill="none" stroke="black" d="M341,-159.7C341,-151.98 341,-142.71 341,-134.11"/>
<polygon fill="black" stroke="black" points="344.5,-134.1 341,-124.1 337.5,-134.1 344.5,-134.1"/>
</a>
</g>
</g>
</g>
</svg>
