<?xml version="1.0" encoding="UTF-8" standalone="no"?>
<!DOCTYPE svg PUBLIC "-//W3C//DTD SVG 1.1//EN"
 "http://www.w3.org/Graphics/SVG/1.1/DTD/svg11.dtd">
<!-- Generated by graphviz version 2.44.0 (20200408.0750)
 -->
<!-- Title: G Pages: 1 -->
<svg width="784pt" height="318pt"
 viewBox="0.00 0.00 784.00 318.00" xmlns="http://www.w3.org/2000/svg" xmlns:xlink="http://www.w3.org/1999/xlink">
<g id="graph0" class="graph" transform="scale(1 1) rotate(0) translate(4 314)">
<title>G</title>
<polygon fill="white" stroke="transparent" points="-4,4 -4,-314 780,-314 780,4 -4,4"/>
<g id="clust1" class="cluster">
<title>cluster_us_west1</title>
<polygon fill="none" stroke="black" stroke-dasharray="5,2" points="8,-8 8,-155 224,-155 224,-8 8,-8"/>
<text text-anchor="middle" x="116" y="-139.8" font-family="Times,serif" font-size="14.00">us&#45;west1 (Oregon)</text>
</g>
<g id="clust2" class="cluster">
<title>cluster_us_central1</title>
<polygon fill="none" stroke="black" stroke-dasharray="5,2" points="280,-8 280,-302 768,-302 768,-8 280,-8"/>
<text text-anchor="middle" x="524" y="-286.8" font-family="Times,serif" font-size="14.00">us&#45;central1 (Iowa)</text>
</g>
<!-- us&#45;west1_svc&#45;d -->
<g id="node1" class="node">
<title>us&#45;west1_svc&#45;d</title>
<g id="a_node1"><a xlink:href="https://console.cloud.google.com/run/detail/us-west1/svc-d/revisions?project=233694408259" xlink:title="svc&#45;d&lt;br/&gt;&lt;font point&#45;size=&#39;9&#39;&gt;test&#45;acct&#45;4@ahmetb&#45;demo.iam.gserviceaccount.com&lt;/font&gt;">
<polygon fill="springgreen" stroke="springgreen" points="216,-52 16,-52 16,-16 216,-16 216,-52"/>
<text text-anchor="start" x="101" y="-35.3" font-family="Times,serif" font-size="14.00">svc&#45;d</text>
<text text-anchor="start" x="24" y="-25.3" font-family="Times,serif" font-size="9.00">test&#45;acct&#45;4@ahmetb&#45;demo.iam.gserviceaccount.com</text>
</a>
</g>
</g>
<!-- us&#45;west1_svc&#45;a -->
<g id="node2" class="node">
<title>us&#45;west1_svc&#45;a</title>
<g id="a_node2"><a xlink:href="https://console.cloud.google.com/run/detail/us-west1/svc-a/revisions?project=233694408259" xlink:title="svc&#45;a&lt;br/&gt;&lt;font point&#45;size=&#39;9&#39;&gt;test&#45;acct&#45;1@ahmetb&#45;demo.iam.gserviceaccount.com&lt;/font&gt;">
<polygon fill="chartreuse" stroke="chartreuse" points="216,-124 16,-124 16,-88 216,-88 216,-124"/>
<text text-anchor="start" x="101.5" y="-107.3" font-family="Times,serif" font-size="14.00">svc&#45;a</text>
<text text-anchor="start" x="24" y="-97.3" font-family="Times,serif" font-size="9.00">test&#45;acct&#45;1@ahmetb&#45;demo.iam.gserviceaccount.com</text>
</a>
</g>
</g>
<!-- us&#45;west1_svc&#45;a&#45;&gt;us&#45;west1_svc&#45;d -->
<g id="edge9" class="edge">
<title>us&#45;west1_svc&#45;a&#45;&gt;us&#45;west1_svc&#45;d</title>
<g id="a_edge9"><a xlink:href="https://console.cloud.google.com/run/detail/us-west1/svc-d/permissions?project=233694408259">
<path fill="none" stroke="black" d="M116,-87.7C116,-79.98 116,-70.71 116,-62.11"/>
<polygon fill="black" stroke="black" points="119.5,-62.1 116,-52.1 112.5,-62.1 119.5,-62.1"/>
</a>
</g>
</g>
<!-- us&#45;central1_svc&#45;c -->
<g id="node3" class="node">
<title>us&#45;central1_svc&#45;c</title>
<g id="a_node3"><a xlink:href="https://console.cloud.google.com/run/detail/us-central1/svc-c/revisions?project=233694408259" xlink:title="svc&#45;c&lt;br/&gt;&lt;font point&#45;size=&#39;9&#39;&gt;test&#45;acct&#45;3@ahmetb&#45;demo.iam.gserviceaccount.com&lt;/font&gt;">
<polygon fill="#ffe7ba" stroke="#ffe7ba" points="760,-52 560,-52 560,-16 760,-16 760,-52"/>
<text text-anchor="start" x="645.5" y="-35.3" font-family="Times,serif" font-size="14.00">svc&#45;c</text>
<text text-anchor="start" x="568" y="-25.3" font-family="Times,serif" font-size="9.00">test&#45;acct&#45;3@ahmetb&#45;demo.iam.gserviceaccount.com</text>
</a>
</g>
</g>
<!-- us&#45;west1_svc&#45;a&#45;&gt;us&#45;central1_svc&#45;c -->
<g id="edge10" class="edge">
<title>us&#45;west1_svc&#45;a&#45;&gt;us&#45;central1_svc&#45;c</title>
<g id="a_edge10"><a xlink:href="https://console.cloud.google.com/run/detail/us-central1/svc-c/permissions?project=233694408259">
<path fill="none" stroke="black" d="M216.09,-92.12C310.49,-79.97 451.7,-61.8 549.39,-49.23"/>
<polygon fill="black" stroke="black" points="550.12,-52.67 559.59,-47.92 549.23,-45.72 550.12,-52.67"/>
</a>
</g>
</g>
<!-- us&#45;central1_svc&#45;d -->
<g id="node7" class="node">
<title>us&#45;central1_svc&#45;d</title>
<g id="a_node7"><a xlink:href="https://console.cloud.google.com/run/detail/us-central1/svc-d/revisions?project=233694408259" xlink:title="svc&#45;d&lt;br/&gt;&lt;font point&#45;size=&#39;9&#39;&gt;test&#45;acct&#45;4@ahmetb&#45;demo.iam.gserviceaccount.com&lt;/font&gt;">
<polygon fill="springgreen" stroke="springgreen" points="488,-52 288,-52 288,-16 488,-16 488,-52"/>
<text text-anchor="start" x="373" y="-35.3" font-family="Times,serif" font-size="14.00">svc&#45;d</text>
<text text-anchor="start" x="296" y="-25.3" font-family="Times,serif" font-size="9.00">test&#45;acct&#45;4@ahmetb&#45;demo.iam.gserviceaccount.com</text>
</a>
</g>
</g>
<!-- us&#45;west1_svc&#45;a&#45;&gt;us&#45;central1_svc&#45;d -->
<g id="edge8" class="edge">
<title>us&#45;west1_svc&#45;a&#45;&gt;us&#45;central1_svc&#45;d</title>
<g id="a_edge8"><a xlink:href="https://console.cloud.google.com/run/detail/us-central1/svc-d/permissions?project=233694408259">
<path fill="none" stroke="black" d="M182.19,-87.97C221.27,-77.91 270.9,-65.14 311.63,-54.65"/>
<polygon fill="black" stroke="black" points="312.7,-57.99 321.51,-52.11 310.96,-51.21 312.7,-57.99"/>
</a>
</g>
</g>
<!-- us&#45;central1_svc&#45;b -->
<g id="node4" class="node">
<title>us&#45;central1_svc&#45;b</title>
<g id="a_node4"><a xlink:href="https://console.cloud.google.com/run/detail/us-central1/svc-b/revisions?project=233694408259" xlink:title="svc&#45;b&lt;br/&gt;&lt;font point&#45;size=&#39;9&#39;&gt;test&#45;acct&#45;2@ahmetb&#45;demo.iam.gserviceaccount.com&lt;/font&gt;">
<polygon fill="lavender" stroke="lavender" points="599,-271 399,-271 399,-235 599,-235 599,-271"/>
<text text-anchor="start" x="484" y="-254.3" font-family="Times,serif" font-size="14.00">svc&#45;b</text>
<text text-anchor="start" x="407" y="-244.3" font-family="Times,serif" font-size="9.00">test&#45;acct&#45;2@ahmetb&#45;demo.iam.gserviceaccount.com</text>
</a>
</g>
</g>
<!-- us&#45;central1_svc&#45;b&#45;&gt;us&#45;central1_svc&#45;c -->
<g id="edge2" class="edge">
<title>us&#45;central1_svc&#45;b&#45;&gt;us&#45;central1_svc&#45;c</title>
<g id="a_edge2"><a xlink:href="https://console.cloud.google.com/run/detail/us-central1/svc-c/permissions?project=233694408259">
<path fill="none" stroke="black" d="M511.63,-234.97C539.84,-196.96 608.06,-105.01 641.24,-60.28"/>
<polygon fill="black" stroke="black" points="644.05,-62.37 647.2,-52.25 638.43,-58.19 644.05,-62.37"/>
</a>
</g>
</g>
<!-- us&#45;central1_svc&#45;e -->
<g id="node6" class="node">
<title>us&#45;central1_svc&#45;e</title>
<g id="a_node6"><a xlink:href="https://console.cloud.google.com/run/detail/us-central1/svc-e/revisions?project=233694408259" xlink:title="svc&#45;e&lt;br/&gt;&lt;font point&#45;size=&#39;9&#39;&gt;test&#45;acct&#45;5@ahmetb&#45;demo.iam.gserviceaccount.com&lt;/font&gt;">
<polygon fill="lightsalmon" stroke="lightsalmon" points="488,-199 288,-199 288,-163 488,-163 488,-199"/>
<text text-anchor="start" x="373.5" y="-182.3" font-family="Times,serif" font-size="14.00">svc&#45;e</text>
<text text-anchor="start" x="296" y="-172.3" font-family="Times,serif" font-size="9.00">test&#45;acct&#45;5@ahmetb&#45;demo.iam.gserviceaccount.com</text>
</a>
</g>
</g>
<!-- us&#45;central1_svc&#45;b&#45;&gt;us&#45;central1_svc&#45;e -->
<g id="edge1" class="edge">
<title>us&#45;central1_svc&#45;b&#45;&gt;us&#45;central1_svc&#45;e</title>
<g id="a_edge1"><a xlink:href="https://console.cloud.google.com/run/detail/us-central1/svc-e/permissions?project=233694408259">
<path fill="none" stroke="black" d="M471.85,-234.88C457.47,-225.81 439.62,-214.55 424.09,-204.76"/>
<polygon fill="black" stroke="black" points="425.58,-201.56 415.26,-199.19 421.85,-207.48 425.58,-201.56"/>
</a>
</g>
</g>
<!-- us&#45;central1_svc&#45;a -->
<g id="node5" class="node">
<title>us&#45;central1_svc&#45;a</title>
<g id="a_node5"><a xlink:href="https://console.cloud.google.com/run/detail/us-central1/svc-a/revisions?project=233694408259" xlink:title="svc&#45;a&lt;br/&gt;&lt;font point&#45;size=&#39;9&#39;&gt;test&#45;acct&#45;1@ahmetb&#45;demo.iam.gserviceaccount.com&lt;/font&gt;">
<polygon fill="chartreuse" stroke="chartreuse" points="488,-124 288,-124 288,-88 488,-88 488,-124"/>
<text text-anchor="start" x="373.5" y="-107.3" font-family="Times,serif" font-size="14.00">svc&#45;a</text>
<text text-anchor="start" x="296" y="-97.3" font-family="Times,serif" font-size="9.00">test&#45;acct&#45;1@ahmetb&#45;demo.iam.gserviceaccount.com</text>
</a>
</g>
</g>
<!-- us&#45;central1_svc&#45;a&#45;&gt;us&#45;west1_svc&#45;d -->
<g id="edge4" class="edge">
<title>us&#45;central1_svc&#45;a&#45;&gt;us&#45;west1_svc&#45;d</title>
<g id="a_edge4"><a xlink:href="https://console.cloud.google.com/run/detail/us-west1/svc-d/permissions?project=233694408259">
<path fill="none" stroke="black" d="M321.81,-87.97C282.73,-77.91 233.1,-65.14 192.37,-54.65"/>
<polygon fill="black" stroke="black" points="193.04,-51.21 182.49,-52.11 191.3,-57.99 193.04,-51.21"/>
</a>
</g>
</g>
<!-- us&#45;central1_svc&#45;a&#45;&gt;us&#45;central1_svc&#45;c -->
<g id="edge5" class="edge">
<title>us&#45;central1_svc&#45;a&#45;&gt;us&#45;central1_svc&#45;c</title>
<g id="a_edge5"><a xlink:href="https://console.cloud.google.com/run/detail/us-central1/svc-c/permissions?project=233694408259">
<path fill="none" stroke="black" d="M454.19,-87.97C493.27,-77.91 542.9,-65.14 583.63,-54.65"/>
<polygon fill="black" stroke="black" points="584.7,-57.99 593.51,-52.11 582.96,-51.21 584.7,-57.99"/>
</a>
</g>
</g>
<!-- us&#45;central1_svc&#45;a&#45;&gt;us&#45;central1_svc&#45;d -->
<g id="edge3" class="edge">
<title>us&#45;central1_svc&#45;a&#45;&gt;us&#45;central1_svc&#45;d</title>
<g id="a_edge3"><a xlink:href="https://console.cloud.google.com/run/detail/us-central1/svc-d/permissions?project=233694408259">
<path fill="none" stroke="black" d="M388,-87.7C388,-79.98 388,-70.71 388,-62.11"/>
<polygon fill="black" stroke="black" points="391.5,-62.1 388,-52.1 384.5,-62.1 391.5,-62.1"/>
</a>
</g>
</g>
<!-- us&#45;central1_svc&#45;e&#45;&gt;us&#45;west1_svc&#45;a -->
<g id="edge6" class="edge">
<title>us&#45;central1_svc&#45;e&#45;&gt;us&#45;west1_svc&#45;a</title>
<g id="a_edge6"><a xlink:href="https://console.cloud.google.com/run/detail/us-west1/svc-a/permissions?project=233694408259">
<path fill="none" stroke="black" d="M295.49,-162.99C284.16,-160.51 272.79,-157.83 262,-155 232.12,-147.16 199.4,-136.59 172.53,-127.37"/>
<polygon fill="black" stroke="black" points="173.5,-124 162.91,-124.04 171.21,-130.61 173.5,-124"/>
</a>
</g>
</g>
<!-- us&#45;central1_svc&#45;e&#45;&gt;us&#45;central1_svc&#45;a -->
<g id="edge7" class="edge">
<title>us&#45;central1_svc&#45;e&#45;&gt;us&#45;central1_svc&#45;a</title>
<g id="a_edge7"><a xlink:href="https://console.cloud.google.com/run/detail/us-central1/svc-a/permissions?project=233694408259">
<path fill="none" stroke="black" d="M388,-162.7C388,-154.25 388,-143.87 388,-134.37"/>
<polygon fill="black" stroke="black" points="391.5,-134.18 388,-124.18 384.5,-134.18 391.5,-134.18"/>
</a>
</g>
</g>
</g>
</svg>
